<svg width="18" height="18" viewBox="0 0 18 18" fill="none" xmlns="http://www.w3.org/2000/svg">
<path fill-rule="evenodd" clip-rule="evenodd" d="M16.5 9C16.5 12.889 13.54 16.0867 9.75 16.463V1.53703C13.54 1.91332 16.5 5.11099 16.5 9ZM8.25 1.53703V16.463C4.46001 16.0867 1.5 12.889 1.5 9C1.5 5.11099 4.46001 1.91332 8.25 1.53703ZM9 18C13.9706 18 18 13.9706 18 9C18 4.02944 13.9706 0 9 0C4.02944 0 0 4.02944 0 9C0 13.9706 4.02944 18 9 18ZM15 9C15 11.6124 13.3304 13.8349 11 14.6586V3.34141C13.3304 4.16508 15 6.38756 15 9Z" fill="#696969"/>
</svg>
